<?xml version="1.0" encoding="UTF-8"?>
<svg version="1.1" xmlns="http://www.w3.org/2000/svg" width="512" height="512">
<path d="M0 0 C0.9873392 -0.00644889 1.97467841 -0.01289778 2.99193698 -0.0195421 C4.06916324 -0.01644489 5.14638949 -0.01334769 6.25625896 -0.01015663 C7.40644833 -0.01468774 8.55663769 -0.01921886 9.74168128 -0.02388728 C12.93022679 -0.03435643 16.11863044 -0.03585729 19.30718768 -0.03349853 C22.74765584 -0.03309026 26.18809041 -0.04413047 29.6285429 -0.05361366 C36.36765013 -0.07022259 43.10672237 -0.07572316 49.84584836 -0.07683842 C55.32430824 -0.07778897 60.80275658 -0.08189959 66.28121281 -0.08823967 C81.81633563 -0.10585196 97.35143082 -0.11507859 112.8865637 -0.11357872 C113.72396765 -0.11349881 114.56137159 -0.1134189 115.42415142 -0.11333656 C116.2625788 -0.1132548 117.10100617 -0.11317304 117.96484043 -0.1130888 C131.55180429 -0.11227595 145.13865728 -0.13141332 158.72558907 -0.1596133 C172.67918703 -0.18834558 186.63273092 -0.2021534 200.5863592 -0.20042574 C208.41920191 -0.19976195 216.2519284 -0.20524953 224.08474445 -0.22678185 C230.75402954 -0.24499822 237.42314573 -0.24933732 244.09244493 -0.235763 C247.49401162 -0.22923549 250.89525431 -0.22910775 254.29679012 -0.2464695 C257.98775271 -0.26187975 261.67786385 -0.25264028 265.36880779 -0.23720741 C266.97460893 -0.2526381 266.97460893 -0.2526381 268.61285049 -0.26838052 C275.99088491 -0.2001905 281.28512895 1.04898259 287.02644634 6.00336266 C287.47246197 6.56152672 287.91847759 7.11969078 288.37800884 7.69476891 C289.0702354 8.52814781 289.0702354 8.52814781 289.77644634 9.37836266 C296.0746401 19.02623272 294.22514438 34.31631901 293.00300884 45.25726891 C291.64067712 50.56019875 289.22814464 54.96976817 286.15750408 59.49512291 C284.78047518 61.59692973 283.57417096 63.76585888 282.36311626 65.96722984 C281.91925076 66.77222923 281.47538525 67.57722862 281.01806927 68.40662193 C280.51561436 69.32269218 280.51561436 69.32269218 280.00300884 70.25726891 C280.7995689 70.25060707 281.59612896 70.24394524 282.4168272 70.23708153 C289.94898265 70.17679825 297.48101997 70.13120746 305.0133543 70.10183239 C308.88517386 70.08622232 312.75679292 70.06507015 316.62849712 70.03095055 C320.36973809 69.99818957 324.11078703 69.98038091 327.85216045 69.97263718 C329.27461549 69.96712352 330.69706083 69.95635708 332.1194334 69.94007874 C341.14374139 69.8409721 347.85679197 70.14560289 355.69050884 74.88226891 C363.2099933 82.60498268 363.87948722 90.47560256 363.75300884 100.94476891 C363.74814465 101.61634026 363.74328045 102.28791161 363.73826885 102.9798336 C363.60631196 114.65671146 361.78438192 122.63205813 354.65337467 132.03733826 C343.65979735 146.60289539 343.43805215 161.1008442 343.68574643 178.6461103 C343.72696538 182.4070518 343.70478694 186.16766923 343.68994427 189.92873192 C343.67128415 197.01894628 343.707884 204.10770242 343.7654168 211.19766361 C343.82825272 219.28264977 343.82784632 227.36727004 343.82269156 235.45245397 C343.81349432 252.05463292 343.88188365 268.65551749 344.00300884 285.25726891 C344.77902447 285.24155846 345.55504009 285.22584801 346.35457134 285.20966148 C349.90397503 285.14692217 353.4532616 285.10815443 357.00300884 285.06976891 C358.83412212 285.03206383 358.83412212 285.03206383 360.70222759 284.99359703 C369.76598621 284.9201071 376.71912887 285.64419288 383.75300884 291.88226891 C384.46972759 292.49328453 385.18644634 293.10430016 385.92488384 293.73383141 C391.53455055 300.54556955 392.59423629 307.52748392 392.53645611 316.12616539 C392.54507168 317.17455589 392.55368725 318.2229464 392.5625639 319.30310631 C392.5851396 322.7451145 392.57849999 326.18630294 392.56941509 329.62836266 C392.5746544 332.03535261 392.580932 334.4423405 392.58819866 336.84932518 C392.59858747 341.88522592 392.59406299 346.92084381 392.57942486 351.9567318 C392.5622408 358.39373835 392.58573696 364.82985195 392.62091446 371.26675892 C392.64292872 376.23493367 392.64143709 381.2028961 392.63314915 386.17110443 C392.63233183 388.54364628 392.63915299 390.91620407 392.65392017 393.2887001 C392.67143949 396.61267611 392.65676034 399.93506422 392.63411236 403.25897789 C392.64580456 404.22811623 392.65749676 405.19725456 392.66954327 406.19576073 C392.55789843 414.2941653 389.96722457 420.56712279 384.89754009 426.87836266 C377.90807696 432.97611192 371.11829693 435.05788889 362.00300884 436.25726891 C362.38972759 436.77933922 362.77644634 437.30140953 363.17488384 437.83930016 C372.33703891 450.7887817 373.18119802 463.39172903 373.19050884 478.81976891 C373.20275494 479.89162437 373.21500103 480.96347984 373.22761822 482.06781578 C373.25722769 498.20497784 373.25722769 498.20497784 368.37800884 504.56976891 C367.93199322 505.18465172 367.48597759 505.79953453 367.02644634 506.43305016 C360.86254763 511.99007854 354.55132851 512.84101895 346.50374126 512.75897789 C345.48326702 512.76438087 344.46279278 512.76978386 343.41139507 512.77535057 C340.06012183 512.7877932 336.70971479 512.77138177 333.35847759 512.75336266 C331.02297197 512.75351769 328.68746608 512.75500734 326.35196209 512.75777245 C321.4690078 512.75915423 316.58634805 512.74663005 311.7034483 512.72382164 C305.43741745 512.69535916 299.17187288 512.69819873 292.90580559 512.71091175 C288.08890895 512.71785532 283.27212532 512.71009607 278.45524311 512.69765472 C276.14391608 512.69313291 273.83257696 512.69280977 271.52124882 512.69672012 C268.2990123 512.69962131 265.07745462 512.68318005 261.85530376 512.66132164 C260.89683041 512.66582329 259.93835705 512.67032494 258.95083904 512.674963 C258.07479015 512.66505836 257.19874126 512.65515373 256.29614544 512.64494896 C255.53499526 512.64251906 254.77384508 512.64008917 253.98962975 512.63758564 C251.44025938 512.14953671 250.58129708 511.28567421 249.00300884 509.25726891 C248.67300884 508.26726891 248.34300884 507.27726891 248.00300884 506.25726891 C241.73300884 505.92726891 235.46300884 505.59726891 229.00300884 505.25726891 C228.67300884 506.90726891 228.34300884 508.55726891 228.00300884 510.25726891 C224.68513365 512.4691857 223.6759602 512.50872754 219.81482697 512.51453781 C218.73393478 512.5209867 217.6530426 512.5274356 216.53939611 512.53407991 C215.34739762 512.53098271 214.15539913 512.5278855 212.92727947 512.52469444 C211.0330495 512.53149111 211.0330495 512.53149111 209.10055226 512.53842509 C205.5882612 512.55069032 202.07606514 512.55039049 198.56375754 512.54803634 C194.77833079 512.54762904 190.99293487 512.55865908 187.20752239 512.56815147 C179.78768013 512.58478286 172.36786964 512.59026203 164.9480103 512.59137623 C158.91648999 512.59232591 152.88498017 512.59643217 146.85346317 512.60277748 C129.75707379 512.62039746 112.66070954 512.62961543 95.56431101 512.62811653 C94.18105506 512.62799666 94.18105506 512.62799666 92.76985455 512.62787437 C91.84655895 512.62779261 90.92326336 512.62771085 89.97198912 512.62762661 C75.01399884 512.626814 60.05610934 512.64594354 45.0981482 512.67415111 C29.74339891 512.70287858 14.38869875 512.71669141 -0.9660781 512.71496356 C-9.58813212 512.7142995 -18.21008058 512.71979838 -26.8321104 512.74131966 C-34.1748388 512.75952989 -41.51741381 512.7638803 -48.86015501 512.75030081 C-52.60599222 512.74376967 -56.35153516 512.74365878 -60.0973444 512.76100731 C-64.16056692 512.77963206 -68.22310786 512.76718704 -72.28634357 512.75174522 C-73.46718846 512.76203235 -74.64803334 512.77231948 -75.8646614 512.78291833 C-83.54956712 512.71830491 -89.12281001 511.75001523 -95.02042866 506.43305016 C-95.6894521 505.51072594 -95.6894521 505.51072594 -96.37199116 504.56976891 C-97.06421772 503.66678062 -97.06421772 503.66678062 -97.77042866 502.74555016 C-101.44045432 495.30030701 -101.32042433 487.20357221 -101.24699116 479.06976891 C-101.23804829 477.96206139 -101.22910542 476.85435387 -101.21989155 475.71307945 C-101.02554839 461.97513287 -100.40095518 446.66123293 -89.99699116 436.25726891 C-90.91480366 436.11031578 -91.83261616 435.96336266 -92.77824116 435.81195641 C-103.70937687 433.81403874 -109.55239639 430.38965624 -116.77042866 422.16351891 C-120.48679822 416.38775983 -120.29890906 410.34534409 -120.30338764 403.72894859 C-120.31171116 402.68099617 -120.32003468 401.63304375 -120.32861042 400.55333519 C-120.35266903 397.09523341 -120.36147793 393.63732046 -120.36808491 390.17914391 C-120.3770549 387.76786812 -120.38617681 385.35659289 -120.39544392 382.94531822 C-120.4119256 377.8915732 -120.41963246 372.83789435 -120.42252827 367.78412437 C-120.42790878 361.32355377 -120.46557975 354.86360935 -120.51127243 348.40321541 C-120.54108616 343.42220376 -120.54825279 338.44134205 -120.54925442 333.46024895 C-120.55344867 331.07931465 -120.56585078 328.69837957 -120.58677197 326.31753349 C-120.6137722 322.97894963 -120.60883392 319.64180639 -120.59635639 316.30316734 C-120.61119068 315.32931587 -120.62602497 314.3554644 -120.64130878 313.35210228 C-120.5583117 305.51266608 -118.37992898 298.97420968 -113.0364418 293.10315132 C-105.74407412 286.0807826 -98.52574872 284.91389807 -88.69620991 284.99359703 C-87.47546772 285.01873375 -86.25472553 285.04387047 -84.99699116 285.06976891 C-83.11947163 285.09007164 -83.11947163 285.09007164 -81.20402241 285.11078453 C-78.13456 285.14593105 -75.06600607 285.19513665 -71.99699116 285.25726891 C-71.79915858 267.95666902 -71.68391493 250.6576501 -71.66277218 233.35597897 C-71.6510965 225.31945899 -71.61399509 217.28466602 -71.51359272 209.24872398 C-71.42598539 202.2313968 -71.38958803 195.21583358 -71.41071928 188.19796318 C-71.42019146 184.49287584 -71.40673332 180.79158285 -71.33157444 177.08716583 C-70.95221776 157.34554811 -74.188666 143.34953608 -85.38211346 126.72878075 C-90.91400473 118.26242147 -91.67086665 111.38219395 -91.62199116 101.38226891 C-91.65421772 100.07129234 -91.68644428 98.76031578 -91.71964741 97.40961266 C-91.72811756 88.96486961 -90.6352078 82.76609253 -84.99699116 76.25726891 C-79.06176697 71.46931395 -74.15936183 70.12904726 -66.57609272 70.14374352 C-65.27504597 70.14381905 -63.97399921 70.14389458 -62.6335268 70.1439724 C-61.21822286 70.14907867 -59.80291932 70.15429466 -58.38761616 70.15961266 C-56.93601753 70.16147855 -55.48441828 70.16290165 -54.03281879 70.16390038 C-50.21879547 70.16771203 -46.40481043 70.17753075 -42.59080219 70.18860435 C-38.69625587 70.19884756 -34.80170333 70.20340423 -30.90714741 70.20844078 C-23.27041123 70.21915426 -15.63370657 70.23621442 -7.99699116 70.25726891 C-8.35526997 69.60653404 -8.71354877 68.95579918 -9.08268452 68.28534508 C-10.70251558 65.33988696 -12.3185439 62.39235942 -13.93449116 59.44476891 C-14.498456 58.42060875 -15.06242085 57.39644859 -15.64347553 56.34125328 C-16.18165913 55.35834312 -16.71984272 54.37543297 -17.27433491 53.36273766 C-17.77183247 52.45676842 -18.26933002 51.55079918 -18.78190327 50.61737633 C-21.70256764 44.94446846 -21.25466062 39.33453877 -21.29215717 33.08026695 C-21.3092813 31.09410983 -21.35316692 29.10824203 -21.39738178 27.12250328 C-21.45364401 18.60094043 -20.97033521 12.86172577 -15.25089741 6.23383141 C-14.69273335 5.78781578 -14.13456928 5.34180016 -13.55949116 4.88226891 C-13.00390522 4.42078453 -12.44831928 3.95930016 -11.87589741 3.48383141 C-8.03634679 0.97734722 -4.5602833 0.00755486 0 0 Z " fill="#010101" transform="translate(119.99699115753174,-0.25726890563964844)"/>
<path d="M0 0 C0.78737703 -0.00465992 1.57475406 -0.00931984 2.38599101 -0.01412097 C5.03455993 -0.02610847 7.68261942 -0.01666116 10.33119297 -0.00736332 C12.24514265 -0.01153459 14.15908985 -0.01701097 16.07303244 -0.02368313 C21.34053129 -0.03818353 26.60787428 -0.03387869 31.87538183 -0.02651632 C37.55305012 -0.0217983 43.23068403 -0.03428235 48.90834141 -0.04453373 C60.03435992 -0.06175381 71.16032204 -0.06255511 82.28635042 -0.05732083 C91.32699512 -0.05328394 100.36762312 -0.05471695 109.40826702 -0.06006908 C111.33630376 -0.06119172 111.33630376 -0.06119172 113.30329074 -0.06233703 C115.91425669 -0.06386846 118.52522263 -0.06540681 121.13618857 -0.066952 C138.67383115 -0.07678491 156.21146372 -0.08094012 173.74910736 -0.07332611 C174.77805602 -0.07288035 174.77805602 -0.07288035 175.82779151 -0.07242559 C181.39853823 -0.06997658 186.96928488 -0.06736503 192.54003152 -0.06474145 C214.27168194 -0.05463823 236.00325511 -0.06299496 257.73489475 -0.086236 C282.14414034 -0.11229831 306.55332831 -0.12510979 330.96259028 -0.11804825 C343.88928409 -0.11455043 356.81591445 -0.11682522 369.74259853 -0.13429928 C380.74656967 -0.14898938 391.75043267 -0.14969854 402.75440162 -0.13222837 C408.37131152 -0.12368976 413.98802798 -0.12163846 419.60492802 -0.13687992 C424.74379413 -0.15065189 429.88229972 -0.14606081 435.02114458 -0.12664068 C436.88313423 -0.12285726 438.74515226 -0.12586949 440.60711681 -0.13625234 C443.13327618 -0.14934052 445.65817608 -0.13791276 448.1842804 -0.12025452 C448.91150536 -0.12990503 449.63873033 -0.13955554 450.38799241 -0.14949849 C455.42615651 -0.07691464 458.2563067 1.24853495 462.15506077 4.38031673 C465.99411002 8.82385988 465.58653352 13.53853481 465.5591135 19.12421322 C465.56940838 20.58851772 465.56940838 20.58851772 465.57991123 22.08240414 C465.59819484 25.3055547 465.59433939 28.52821924 465.58865452 31.75141048 C465.59321557 33.9943371 465.59852091 36.23726232 465.60453892 38.48018551 C465.61347312 43.18010798 465.61104329 47.87986056 465.60110569 52.57977962 C465.589616 58.60017262 465.60982642 64.61997909 465.63902283 70.64029503 C465.65737632 75.27202226 465.65709402 79.90360873 465.65138531 84.5353632 C465.65123199 86.75490867 465.65728505 88.97446361 465.66967678 91.19397449 C465.68456835 94.29869828 465.67392247 97.40233573 465.65676975 100.50702572 C465.66643772 101.42202343 465.67610569 102.33702114 465.68606663 103.27974606 C465.62244991 108.78387847 464.95324261 112.1004802 461.15506077 116.38031673 C456.99527406 119.54509781 453.35261973 119.80805928 448.29450417 119.76342678 C447.11090606 119.77086605 447.11090606 119.77086605 445.90339687 119.77845562 C443.24909039 119.79144896 440.59528389 119.78301528 437.9409647 119.77472591 C436.02288977 119.77961304 434.10481778 119.78580201 432.18675083 119.7931838 C426.90785539 119.80962892 421.62910886 119.8072561 416.35019672 119.80180883 C410.66025469 119.79914428 404.97035286 119.81365956 399.28042698 119.82590389 C388.13034904 119.84698398 376.98032307 119.85149728 365.83022756 119.84971601 C356.77003611 119.84840975 347.7098609 119.85220554 338.64967251 119.85964108 C336.04255372 119.86174021 333.43543494 119.86383781 330.82831615 119.8659339 C329.53079365 119.86697742 328.23327114 119.86802095 326.89642977 119.8690961 C309.32090612 119.88263406 291.74539122 119.89022049 274.16986275 119.88577175 C273.48241412 119.8855998 272.79496549 119.88542784 272.08668508 119.88525068 C268.60233156 119.88436177 265.11797806 119.88341696 261.63362456 119.88245267 C260.9416065 119.88226163 260.24958844 119.8820706 259.53660013 119.88187378 C258.13717145 119.88148669 256.73774277 119.88109636 255.3383141 119.8807028 C233.55965696 119.87473181 211.78110606 119.89017453 190.00247288 119.92230892 C165.54048703 119.9583719 141.07858003 119.97767675 116.61656421 119.97277021 C103.66190701 119.97052265 90.70735513 119.97581065 77.75271893 120.0006628 C66.72494384 120.02163788 55.69733183 120.02530557 44.66955013 120.00636321 C39.04044714 119.99718225 33.41164852 119.99613463 27.78256893 120.01671886 C22.63253515 120.03534349 17.48305683 120.03102125 12.33304476 120.00817305 C10.4670156 120.00396572 8.60094455 120.00825835 6.73495955 120.02176899 C4.20311575 120.03885662 1.6732274 120.02529123 -0.85854149 120.00393581 C-1.5873708 120.01621334 -2.31620011 120.02849087 -3.06711516 120.04114044 C-8.72155105 119.94112844 -11.00221965 118.22766239 -14.84493923 114.38031673 C-16.7089823 111.57343249 -17.0971028 109.4445475 -17.11236477 106.10532284 C-17.12089474 105.25866558 -17.12942471 104.41200832 -17.13821316 103.53969479 C-17.13730679 102.61907757 -17.13640041 101.69846035 -17.13546658 100.74994564 C-17.1421838 99.77388866 -17.14890102 98.79783169 -17.1558218 97.79219723 C-17.17482867 94.56370619 -17.17872735 91.33542274 -17.18087673 88.10687923 C-17.18730271 85.86252411 -17.19403091 83.61816984 -17.20104885 81.37381649 C-17.21302829 76.66795567 -17.21672897 71.96216829 -17.2155447 67.2562933 C-17.21534146 61.22805146 -17.24264643 55.20028078 -17.27708912 49.17215061 C-17.29933289 44.53614803 -17.30338301 39.90025928 -17.30232525 35.26420879 C-17.3046849 33.04186409 -17.31352881 30.81951641 -17.32898998 28.59722424 C-17.34859864 25.48764002 -17.34283161 22.37907777 -17.33077908 19.26947689 C-17.34201809 18.35290813 -17.3532571 17.43633938 -17.36483669 16.49199581 C-17.31059561 10.98125152 -16.65015529 7.66456228 -12.84493923 3.38031673 C-8.68823946 0.21919202 -5.05396045 -0.04667407 0 0 Z " fill="#E6EBF0" transform="translate(31.84493923187256,299.61968326568604)"/>
<path d="M0 0 C80.52 0 161.04 0 244 0 C244 65.67 244 131.34 244 199 C227.83 199 211.66 199 195 199 C194.95101563 194.05386719 194.90203125 189.10773438 194.8515625 184.01171875 C194.81618274 180.88083873 194.78022658 177.7499867 194.7421875 174.61914062 C194.6818472 169.6482338 194.62365833 164.6773662 194.578125 159.70629883 C194.54128727 155.69913073 194.49493164 151.69217606 194.44193649 147.6851902 C194.42338445 146.15540112 194.40827947 144.62556627 194.39665604 143.09570885 C194.37980716 140.9551031 194.3507764 138.81498701 194.31884766 136.67456055 C194.30552399 135.45544479 194.29220032 134.23632904 194.2784729 132.98027039 C194.22082005 129.81677041 194.22082005 129.81677041 192 127 C188.91169727 125.97056576 186.7781987 125.86683699 183.54103088 125.85282898 C182.40677673 125.84567368 181.27252258 125.83851837 180.10389709 125.83114624 C178.8586174 125.82845734 177.61333771 125.82576843 176.33032227 125.82299805 C175.01957733 125.81642685 173.7088324 125.80985565 172.35836792 125.80308533 C168.01105978 125.7820658 163.66375135 125.77168754 159.31640625 125.76171875 C157.81978779 125.75767094 156.32316952 125.75355401 154.82655144 125.74936867 C147.79782372 125.73032463 140.76910648 125.71608981 133.74035794 125.7077567 C125.62406249 125.69797529 117.5080391 125.67162919 109.39183956 125.63125581 C103.11915463 125.60112185 96.84654785 125.58629058 90.57379192 125.58297569 C86.82662979 125.5806228 83.07975859 125.57163136 79.33267403 125.54651451 C75.15463153 125.51895994 70.97719975 125.52305651 66.79907227 125.5300293 C65.5558168 125.51721924 64.31256134 125.50440918 63.03163147 125.49121094 C61.32602051 125.50162666 61.32602051 125.50162666 59.58595276 125.51225281 C58.10402357 125.50867028 58.10402357 125.50867028 56.59215641 125.50501537 C53.25068664 126.14308496 52.06570623 127.34527334 50 130 C49.38337737 133.18277223 49.38337737 133.18277223 49.45410156 136.78808594 C49.43859505 137.79845665 49.43859505 137.79845665 49.42277527 138.82923889 C49.39335994 141.04786197 49.39184849 143.2655723 49.390625 145.484375 C49.37564234 147.0256728 49.35891501 148.56695454 49.34051514 150.10821533 C49.2968383 154.15896341 49.27684202 158.20949493 49.26177979 162.26043701 C49.23876717 167.1239678 49.18633721 171.98725974 49.13883972 176.8506012 C49.07002521 184.23379649 49.03857729 191.61630587 49 199 C32.83 199 16.66 199 0 199 C-0.25 177.1875 -0.25 177.1875 -0.29785156 170.30932617 C-0.32721333 168.51218082 -0.35803768 166.71505851 -0.390625 164.91796875 C-0.39231689 163.51593201 -0.39231689 163.51593201 -0.39404297 162.08557129 C-0.37436338 157.05191067 -0.37436338 157.05191067 -2.81152344 152.87231445 C-6.15596962 151.53923701 -8.57434865 152.11186817 -12 153 C-14.05359902 156.08039853 -14.25738734 156.79484698 -14.31884766 160.2878418 C-14.33890869 161.16049683 -14.35896973 162.03315186 -14.37963867 162.93225098 C-14.39099854 163.84535034 -14.4023584 164.75844971 -14.4140625 165.69921875 C-14.43170654 166.54150024 -14.44935059 167.38378174 -14.4675293 168.25158691 C-14.53057569 171.39669739 -14.57677667 174.54212733 -14.625 177.6875 C-14.74875 184.720625 -14.8725 191.75375 -15 199 C-33.15 199 -51.3 199 -70 199 C-70 156.43 -70 113.86 -70 70 C-51.85 70 -33.7 70 -15 70 C-14.97421875 73.99609375 -14.9484375 77.9921875 -14.921875 82.109375 C-14.88347468 85.97500692 -14.83830769 89.84050454 -14.79248047 93.70605469 C-14.76201804 96.3948719 -14.74135434 99.08350098 -14.72900391 101.77246094 C-14.70762342 105.63520197 -14.66099493 109.49693448 -14.609375 113.359375 C-14.60814636 114.5636615 -14.60691772 115.767948 -14.60565186 117.00872803 C-14.58593323 118.12958801 -14.5662146 119.250448 -14.54589844 120.40527344 C-14.53257477 121.88420074 -14.53257477 121.88420074 -14.51898193 123.39300537 C-13.85180828 126.74440936 -12.70824205 127.96623621 -10 130 C-6.37350049 130.08916154 -6.37350049 130.08916154 -3 129 C-0.79982735 125.69974103 -0.74443584 124.69300259 -0.7215271 120.85578918 C-0.71037558 119.7936939 -0.69922405 118.73159861 -0.6877346 117.63731861 C-0.68556246 116.46769927 -0.68339031 115.29807993 -0.68115234 114.09301758 C-0.67099909 112.84372058 -0.66084583 111.59442358 -0.6503849 110.3072691 C-0.62478301 106.92611913 -0.60772908 103.5451403 -0.59480286 100.1639328 C-0.58087711 96.99184705 -0.55623702 93.81985238 -0.5324707 90.64782715 C-0.46920486 81.36945198 -0.42315596 72.09096589 -0.375 62.8125 C-0.25125 42.084375 -0.1275 21.35625 0 0 Z " fill="#F9F6F6" transform="translate(134,86)"/>
<path d="M0 0 C59.00870923 -0.09150009 118.01741602 -0.16201863 177.02618144 -0.20426132 C183.9883203 -0.20925073 190.95045901 -0.21443694 197.91259766 -0.21972656 C198.95183134 -0.22051112 198.95183134 -0.22051112 200.01205964 -0.22131152 C222.47498206 -0.23836184 244.93786428 -0.26841074 267.40076234 -0.30518888 C291.13523401 -0.34397844 314.86967455 -0.36798117 338.60417783 -0.37635398 C352.82576412 -0.38185003 367.04723499 -0.39922608 381.26878576 -0.43166587 C391.01312836 -0.4527645 400.75741106 -0.4592106 410.50177486 -0.45400551 C416.12878782 -0.45143649 421.75559871 -0.45545108 427.38257599 -0.4768219 C432.53087425 -0.49623252 437.67883383 -0.49730569 442.82714741 -0.48359558 C444.69265911 -0.48190015 446.55819163 -0.48702068 448.42366214 -0.49953273 C450.95460958 -0.51552541 453.48432552 -0.50697148 456.01525307 -0.49219131 C456.74390727 -0.50269937 457.47256147 -0.51320742 458.22329611 -0.5240339 C463.26740016 -0.4572154 466.09742402 0.86332119 470 4 C473.83904925 8.44354315 473.43147275 13.15821807 473.40405273 18.74389648 C473.41434761 20.20820099 473.41434761 20.20820099 473.42485046 21.7020874 C473.44313407 24.92523797 473.43927863 28.14790251 473.43359375 31.37109375 C473.4381548 33.61402037 473.44346014 35.85694559 473.44947815 38.09986877 C473.45841235 42.79979125 473.45598252 47.49954383 473.44604492 52.19946289 C473.43455523 58.21985588 473.45476565 64.23966236 473.48396206 70.25997829 C473.50231555 74.89170553 473.50203325 79.52329199 473.49632454 84.15504646 C473.49617122 86.37459193 473.50222428 88.59414688 473.51461601 90.81365776 C473.52950758 93.91838155 473.5188617 97.022019 473.50170898 100.12670898 C473.51137695 101.0417067 473.52104492 101.95670441 473.53100586 102.89942932 C473.46738915 108.40356173 472.79818184 111.72016347 469 116 C464.84021329 119.16478107 461.19755896 119.42774255 456.1394434 119.38311005 C454.95584529 119.39054932 454.95584529 119.39054932 453.74833611 119.39813888 C451.09402963 119.41113223 448.44022312 119.40269855 445.78590393 119.39440918 C443.867829 119.39929631 441.94975701 119.40548528 440.03169006 119.41286707 C434.75279463 119.42931218 429.47404809 119.42693937 424.19513595 119.4214921 C418.50519392 119.41882755 412.81529209 119.43334283 407.12536621 119.44558716 C395.97528827 119.46666725 384.8252623 119.47118055 373.67516679 119.46939927 C364.61497534 119.46809302 355.55480014 119.47188881 346.49461174 119.47932434 C343.88749296 119.48142347 341.28037417 119.48352107 338.67325538 119.48561716 C337.37573288 119.48666069 336.07821037 119.48770422 334.741369 119.48877937 C317.16584535 119.50231732 299.59033046 119.50990375 282.01480198 119.50545502 C281.32735335 119.50528306 280.63990472 119.50511111 279.93162431 119.50493394 C276.44727079 119.50404504 272.96291729 119.50310022 269.47856379 119.50213593 C268.78654573 119.5019449 268.09452767 119.50175387 267.38153936 119.50155704 C265.98211068 119.50116995 264.58268201 119.50077963 263.18325333 119.50038607 C241.40459619 119.49441507 219.62604529 119.5098578 197.84741211 119.54199219 C173.38542627 119.57805516 148.92351926 119.59736002 124.46150345 119.59245348 C111.50684624 119.59020592 98.55229436 119.59549391 85.59765816 119.62034607 C74.56988307 119.64132114 63.54227106 119.64498884 52.51448936 119.62604648 C46.88538637 119.61686551 41.25658775 119.61581789 35.62750816 119.63640213 C30.47747438 119.65502676 25.32799607 119.65070451 20.17798399 119.62785631 C18.31195483 119.62364899 16.44588378 119.62794161 14.57989878 119.64145225 C12.04805498 119.65853989 9.51816663 119.6449745 6.98639774 119.62361908 C6.25756843 119.63589661 5.52873912 119.64817413 4.77782407 119.6608237 C-0.89323858 119.56051762 -3.19482344 117.92860358 -7 114 C-9.47209615 110.58144418 -9.20767136 107.38356786 -9.125 103.25 C-9.09792969 101.49429688 -9.09792969 101.49429688 -9.0703125 99.703125 C-9.04710937 98.81109375 -9.02390625 97.9190625 -9 97 C-8.06604292 96.99940291 -7.13208585 96.99880582 -6.16982704 96.99819064 C49.16920282 96.96245967 104.50817852 96.9056817 159.84715777 96.82207905 C166.48998321 96.81206145 173.1328089 96.80221272 179.77563477 96.79248047 C180.43667325 96.79150866 181.09771173 96.79053686 181.77878168 96.7895356 C203.86765931 96.75715694 225.95652342 96.73896138 248.04542058 96.72680578 C270.0208458 96.7144001 291.99621472 96.68691184 313.97160441 96.64538693 C327.53443687 96.62023492 341.09717598 96.60688397 354.6600321 96.60857043 C363.95730052 96.60860015 373.25447377 96.59399558 382.55170511 96.56783572 C387.91781066 96.55317061 393.28372101 96.54500333 398.64984322 96.55419731 C403.56333724 96.56247342 408.47643877 96.5523589 413.38987453 96.52766338 C415.16659566 96.52197135 416.9433539 96.5230082 418.72006392 96.53148755 C433.21617889 96.77733446 433.21617889 96.77733446 445.375 89.6875 C460.70194454 64.33909172 450.62506926 30.61952832 451 1 C302.17 1 153.34 1 0 1 C0 0.67 0 0.34 0 0 Z " fill="#CCD9DD" transform="translate(24,300)"/>
<path d="M0 0 C0.98839696 -0.00352835 0.98839696 -0.00352835 1.99676153 -0.00712797 C4.2203226 -0.01382223 6.44382528 -0.01335962 8.66739559 -0.01294994 C10.27153088 -0.01624831 11.87566534 -0.01997382 13.47979873 -0.02409142 C17.90032959 -0.03412279 22.32084686 -0.03783005 26.74138749 -0.04048073 C31.50435758 -0.04438047 36.26731689 -0.0539591 41.03028011 -0.0626936 C52.53974385 -0.08246837 64.04920849 -0.09252595 75.55868497 -0.10142139 C80.97720533 -0.10580302 86.3957247 -0.11117019 91.81424427 -0.11641026 C109.82460896 -0.13342429 127.83497305 -0.14791843 145.84534454 -0.155159 C150.52056091 -0.15706893 155.19577727 -0.15898926 159.87099361 -0.16094494 C161.03301377 -0.16142868 162.19503392 -0.16191242 163.3922668 -0.16241082 C182.2158759 -0.17071095 201.03942144 -0.1960468 219.86300278 -0.22852562 C239.18409935 -0.26159131 258.50516362 -0.27960736 277.82628864 -0.28280324 C288.67623263 -0.28496889 299.52608397 -0.29372559 310.3760004 -0.31926441 C319.61661762 -0.34096477 328.85711969 -0.34902511 338.09775949 -0.33929763 C342.81190452 -0.33475089 347.52581194 -0.33666091 352.23992443 -0.35605907 C356.55873391 -0.37367694 360.8771322 -0.37270423 365.19594597 -0.35716178 C366.75524828 -0.35478361 368.31457896 -0.35912019 369.8738379 -0.37099043 C382.88698278 -0.46389013 391.79099852 1.53364851 401.36098385 10.69672108 C406.52954566 16.40500881 408.5680151 20.36369387 408.5680151 28.13422108 C263.3680151 28.13422108 118.1680151 28.13422108 -31.4319849 28.13422108 C-31.4319849 20.1097905 -28.62507083 15.23656454 -23.2444849 9.38422108 C-16.79409211 3.28824547 -8.78235826 0.01333245 0 0 Z " fill="#8FDCB4" transform="translate(67.43198490142822,433.86577892303467)"/>
<path d="M0 0 C145.86 0 291.72 0 442 0 C442 5.28 442 10.56 442 16 C438 20 438 20 435.95445156 20.49942875 C435.2246008 20.49921947 434.49475004 20.49901018 433.74278259 20.49879456 C432.90020401 20.50837189 432.05762543 20.51794922 431.18951416 20.52781677 C430.27353455 20.51807327 429.35755493 20.50832977 428.41381836 20.49829102 C426.95713493 20.50656921 426.95713493 20.50656921 425.47102356 20.51501465 C423.36376403 20.52433715 421.25644817 20.52443778 419.14918327 20.51642036 C415.81666182 20.50381859 412.48497199 20.51505365 409.15248108 20.53245544 C403.28293991 20.55918524 397.41360181 20.56474986 391.54400635 20.56335449 C382.14491383 20.56112756 372.74607211 20.5751285 363.34707832 20.61894035 C360.05920984 20.62881059 356.77173214 20.62004549 353.48387146 20.61024475 C351.4748407 20.61638654 349.46581209 20.62329746 347.45678711 20.63110352 C346.07978134 20.61952461 346.07978134 20.61952461 344.67495728 20.60771179 C343.83519852 20.6144693 342.99543976 20.62122681 342.13023376 20.62818909 C341.03602316 20.62730962 341.03602316 20.62730962 339.9197073 20.62641239 C337.38901649 21.11890139 336.54280658 21.95757405 335 24 C334.67 25.32 334.34 26.64 334 28 C327.4 28 320.8 28 314 28 C313.01 26.02 312.02 24.04 311 22 C308.49514612 20.74757306 306.80588907 20.87399498 304.00177956 20.87250805 C302.9378286 20.8695004 301.87387765 20.86649275 300.77768576 20.86339396 C299.59950069 20.86514433 298.42131562 20.86689471 297.20742798 20.86869812 C295.34087289 20.86552455 295.34087289 20.86552455 293.43660963 20.86228687 C290.69635591 20.85835497 287.95617114 20.85627086 285.2159214 20.85725212 C280.75803866 20.85884148 276.30017846 20.85365019 271.84230042 20.84762573 C265.37021517 20.83950454 258.89813387 20.83456611 252.42604446 20.83133507 C242.20046575 20.82584506 231.97492052 20.80895459 221.74935913 20.78999329 C218.25317579 20.78363624 214.75699237 20.77732786 211.26080894 20.77101612 C210.38702642 20.76943236 209.5132439 20.7678486 208.61298312 20.76621684 C198.6615875 20.74827209 188.71018952 20.73204937 178.75878906 20.71704102 C177.8488318 20.71566514 176.93887454 20.71428927 176.00134282 20.71287171 C161.25079374 20.6909353 146.50025323 20.68018418 131.74969073 20.67267027 C116.61644341 20.66460587 101.48326985 20.64133754 86.35006464 20.6047166 C77.00961729 20.58266177 67.6693215 20.57303602 58.32884942 20.57921693 C51.93024063 20.58238585 45.53176147 20.57109912 39.13319279 20.54832252 C35.43850475 20.53562511 31.74410542 20.52952022 28.04940605 20.54073906 C24.04819057 20.55273283 20.04771304 20.53404915 16.04653931 20.51225281 C14.28595387 20.52491661 14.28595387 20.52491661 12.48980105 20.53783625 C11.4206346 20.52700536 10.35146816 20.51617447 9.24990273 20.50501537 C8.32598815 20.50403856 7.40207357 20.50306176 6.45016158 20.50205535 C4 20 4 20 0 16 C0 10.72 0 5.44 0 0 Z " fill="#FBD599" transform="translate(35,477)"/>
<path d="M0 0 C1.27230469 -0.01546875 2.54460937 -0.0309375 3.85546875 -0.046875 C14.394936 -0.00336843 22.28193045 2.26036981 30.75 8.5 C32.91100182 7.42200605 35.06880719 6.33833 37.22265625 5.24609375 C38.07730469 4.81425781 38.93195313 4.38242188 39.8125 3.9375 C41.09833984 3.28587891 41.09833984 3.28587891 42.41015625 2.62109375 C48.17698349 -0.14197707 53.74911964 0.27811731 60.03686523 0.25976562 C62.04488027 0.25008495 64.05275382 0.21888709 66.06054688 0.1875 C67.33607422 0.18234375 68.61160156 0.1771875 69.92578125 0.171875 C71.67242065 0.15785645 71.67242065 0.15785645 73.4543457 0.14355469 C78.43493955 0.68223659 81.67453994 2.33734047 85.0625 6 C87.52141957 9.6428438 87.88150122 12.3789924 87.92700195 16.6706543 C87.94625481 18.25326302 87.94625481 18.25326302 87.96589661 19.86784363 C87.97328354 21.00844742 87.98067047 22.14905121 87.98828125 23.32421875 C87.996353 24.49958694 88.00442474 25.67495514 88.01274109 26.88594055 C88.02658125 29.37666347 88.0373037 31.86740534 88.04516602 34.3581543 C88.06235358 38.1551544 88.10623928 41.95127818 88.15039062 45.74804688 C88.1605199 48.16926444 88.16903527 50.5904894 88.17578125 53.01171875 C88.19328934 54.14220139 88.21079742 55.27268402 88.22883606 56.43742371 C88.21131545 62.85041784 87.78315166 68.27830504 83.75 73.5 C76.83560795 79.02368911 68.3477184 78.01809841 59.94921875 77.98828125 C49.61394993 78.12575157 43.9835122 80.77649827 36.8046875 88.109375 C33.91647489 90.06413486 32.17323135 89.99214395 28.75 89.5 C26.1875 87.85546875 26.1875 87.85546875 23.75 85.6875 C14.89420127 77.89610016 7.70762684 78.06690822 -3.68554688 78.06054688 C-15.04713752 77.87151295 -15.04713752 77.87151295 -20.25 73.5 C-24.86163613 67.21851995 -24.83579106 60.68277447 -24.78125 53.15234375 C-24.7850769 51.98167862 -24.78890381 50.81101349 -24.79284668 49.60487366 C-24.79555869 47.13981258 -24.78824764 44.67472237 -24.77148438 42.2097168 C-24.75004726 38.44579744 -24.77132232 34.68378269 -24.796875 30.91992188 C-24.79423198 28.51822497 -24.78910753 26.11652925 -24.78125 23.71484375 C-24.79339539 22.03490578 -24.79339539 22.03490578 -24.80578613 20.32102966 C-24.7113288 12.41924394 -23.54672339 7.86222121 -17.890625 2.09375 C-12.05999929 -0.45871276 -6.28951006 -0.07554967 0 0 Z " fill="#040404" transform="translate(224.25,104.5)"/>
<path d="M0 0 C18.15 0 36.3 0 55 0 C55.02578125 3.99609375 55.0515625 7.9921875 55.078125 12.109375 C55.11652532 15.97500692 55.16169231 19.84050454 55.20751953 23.70605469 C55.23798196 26.3948719 55.25864566 29.08350098 55.27099609 31.77246094 C55.29237658 35.63520197 55.33900507 39.49693448 55.390625 43.359375 C55.39185364 44.5636615 55.39308228 45.767948 55.39434814 47.00872803 C55.41406677 48.12958801 55.4337854 49.250448 55.45410156 50.40527344 C55.46298401 51.39122498 55.47186646 52.37717651 55.48101807 53.39300537 C56.14540789 56.73042541 57.36744484 57.90602887 60 60 C60.99 60.33 61.98 60.66 63 61 C63 67.6 63 74.2 63 81 C61.02 81.99 59.04 82.98 57 84 C55.8584378 86.2831244 55.84665628 87.63479305 55.79467773 90.17431641 C55.77449585 91.04709229 55.75431396 91.91986816 55.73352051 92.8190918 C55.71704468 93.73730713 55.70056885 94.65552246 55.68359375 95.6015625 C55.66494263 96.44485107 55.6462915 97.28813965 55.6270752 98.15698242 C55.55867807 101.31287976 55.49859289 104.46895281 55.4375 107.625 C55.293125 114.67875 55.14875 121.7325 55 129 C36.85 129 18.7 129 0 129 C0 86.43 0 43.86 0 0 Z " fill="#B6C4CF" transform="translate(64,156)"/>
<path d="M0 0 C18.15 0 36.3 0 55 0 C55 42.57 55 85.14 55 129 C36.85 129 18.7 129 0 129 C0 86.43 0 43.86 0 0 Z " fill="#B5C4CF" transform="translate(393,156)"/>
<path d="M0 0 C0.96132214 -0.01303874 1.92264427 -0.02607747 2.91309738 -0.03951132 C3.96124241 -0.02835771 5.00938744 -0.01720411 6.08929443 -0.00571251 C7.20893208 -0.01351246 8.32856972 -0.02131242 9.48213577 -0.02934873 C13.24182075 -0.04932606 17.0005 -0.03348044 20.76019287 -0.01776695 C23.45232103 -0.02454052 26.1443794 -0.03326086 28.83648682 -0.04431725 C35.39419751 -0.06655706 41.95162217 -0.06174532 48.5093441 -0.04725404 C53.83863041 -0.03596465 59.16783652 -0.03442958 64.49713135 -0.03987312 C65.63462322 -0.04102237 65.63462322 -0.04102237 66.79509473 -0.04219484 C68.33559643 -0.04379345 69.8760981 -0.04541452 71.41659975 -0.04705779 C85.86383154 -0.06131746 100.31090474 -0.04491921 114.75811052 -0.01805596 C127.15601949 0.00428307 139.55369438 0.000403 151.95159912 -0.02264977 C166.34692108 -0.04940398 180.74210401 -0.05994415 195.13744736 -0.04458845 C196.67229968 -0.04299569 198.20715203 -0.04142384 199.74200439 -0.03987312 C200.87478597 -0.03871606 200.87478597 -0.03871606 202.03045201 -0.03753562 C207.35368895 -0.03321746 212.67683775 -0.04050761 218.00006104 -0.05227089 C224.48686968 -0.06629028 230.9733758 -0.0625081 237.46014977 -0.03586717 C240.77028824 -0.02272087 244.0798176 -0.02027828 247.38996887 -0.03411293 C250.97710028 -0.04772554 254.56280165 -0.03070161 258.14984131 -0.00571251 C259.72205885 -0.02244292 259.72205885 -0.02244292 261.32603836 -0.03951132 C262.2873605 -0.02647259 263.24868263 -0.01343385 264.23913574 0 C265.06687374 0.00081176 265.89461174 0.00162352 266.74743271 0.00245988 C269.11956787 0.6292057 269.11956787 0.6292057 274.11956787 5.6292057 C274.11956787 10.5792057 274.11956787 15.5292057 274.11956787 20.6292057 C180.39956787 20.6292057 86.67956787 20.6292057 -9.88043213 20.6292057 C-9.88043213 0.00968973 -9.88043213 0.00968973 0 0 Z " fill="#FEBC85" transform="translate(123.88043212890625,14.370794296264648)"/>
<path d="M0 0 C89.76 0 179.52 0 272 0 C269.12055774 7.19860565 265.46730763 14.06538473 262 21 C178.84 21 95.68 21 10 21 C2 5 2 5 0 0 Z " fill="#F5B681" transform="translate(120,50)"/>
<path d="M0 0 C16.83 0 33.66 0 51 0 C51 19.47 51 38.94 51 59 C34.17 59 17.34 59 0 59 C0 39.53 0 20.06 0 0 Z " fill="#D77F4A" transform="translate(263,226)"/>
<path d="M0 0 C16.83 0 33.66 0 51 0 C51 19.47 51 38.94 51 59 C34.17 59 17.34 59 0 59 C0 39.53 0 20.06 0 0 Z " fill="#D77F4A" transform="translate(198,226)"/>
<path d="M0 0 C0.98548828 0.00128906 1.97097656 0.00257813 2.98632812 0.00390625 C4.00533203 0.03613281 5.02433594 0.06835938 6.07421875 0.1015625 C7.58532227 0.09189453 7.58532227 0.09189453 9.12695312 0.08203125 C16.58269492 0.18888879 22.2043202 1.52692889 27.8203125 6.578125 C28.50287109 7.45597656 28.50287109 7.45597656 29.19921875 8.3515625 C29.67230469 8.94195312 30.14539063 9.53234375 30.6328125 10.140625 C33.02313589 13.49865717 32.89597851 15.95088036 32.88671875 20.0390625 C32.89058594 21.73482422 32.89058594 21.73482422 32.89453125 23.46484375 C32.76171875 26.7265625 32.76171875 26.7265625 32.10546875 29.421875 C31.53299413 31.7286765 31.53299413 31.7286765 32.72265625 33.60546875 C33.18929687 34.16105469 33.6559375 34.71664062 34.13671875 35.2890625 C38.43595506 40.48897681 38.31696137 46.19489017 37.76171875 52.7265625 C35.93641038 58.49069419 33.16599396 63.5701177 27.97802734 66.85644531 C21.20798781 70.16553193 14.95808144 70.36050052 7.51171875 70.2890625 C5.77535156 70.32483398 5.77535156 70.32483398 4.00390625 70.36132812 C2.32941406 70.35842773 2.32941406 70.35842773 0.62109375 70.35546875 C-0.88759277 70.3565564 -0.88759277 70.3565564 -2.42675781 70.35766602 C-6.60581071 69.41959275 -7.84725838 68.32195244 -10.23828125 64.7265625 C-10.98423733 60.40625008 -10.93852105 56.13699404 -10.90234375 51.76171875 C-10.90712738 50.49565292 -10.91191101 49.2295871 -10.9168396 47.92515564 C-10.92024083 45.24879248 -10.91355311 42.57471726 -10.89013672 39.89868164 C-10.86167554 36.48079939 -10.8780394 33.06488266 -10.90799904 29.64707279 C-10.93049018 26.3727193 -10.91470613 23.09859799 -10.90234375 19.82421875 C-10.9124649 18.60219254 -10.92258606 17.38016632 -10.93301392 16.12110901 C-10.80274621 6.6605523 -10.80274621 6.6605523 -8.02416992 2.95336914 C-5.00578895 0.54072758 -3.80185714 -0.02556916 0 0 Z " fill="#040404" transform="translate(163.23828125,324.2734375)"/>
<path d="M0 0 C0.92627197 -0.01015137 1.85254395 -0.02030273 2.80688477 -0.03076172 C4.25792603 0.00380127 4.25792603 0.00380127 5.73828125 0.0390625 C6.72691162 0.05308105 7.71554199 0.06709961 8.73413086 0.08154297 C16.74179866 0.34800125 22.71720999 1.58110741 28.671875 7.19140625 C34.0499732 13.17892067 34.60622912 18.31092042 34.5 26.171875 C33.66260917 32.6816785 30.07835736 35.91297404 25.30078125 40.0390625 C24.55828125 40.5753125 23.81578125 41.1115625 23.05078125 41.6640625 C22.39078125 42.3240625 21.73078125 42.9840625 21.05078125 43.6640625 C22.20707031 44.91123047 22.20707031 44.91123047 23.38671875 46.18359375 C24.39984775 47.28115017 25.41286262 48.37881194 26.42578125 49.4765625 C26.93367188 50.02376953 27.4415625 50.57097656 27.96484375 51.13476562 C33.93658306 57.6172458 33.93658306 57.6172458 34.42578125 62.1015625 C34.05078125 65.6640625 34.05078125 65.6640625 32.42578125 68.1015625 C29.29394633 70.16198021 27.73533352 70.340817 24.05078125 69.6640625 C22.31770336 68.06656553 20.66300094 66.38345286 19.05078125 64.6640625 C18.54732178 64.13707764 18.0438623 63.61009277 17.52514648 63.06713867 C15.91740845 61.38127589 14.32662094 59.68069852 12.73828125 57.9765625 C12.18849609 57.39583984 11.63871094 56.81511719 11.07226562 56.21679688 C7.05078125 51.89557453 7.05078125 51.89557453 7.05078125 49.6640625 C6.39078125 49.6640625 5.73078125 49.6640625 5.05078125 49.6640625 C5.0971875 50.77265625 5.14359375 51.88125 5.19140625 53.0234375 C5.22893227 54.48695218 5.26533154 55.95049606 5.30078125 57.4140625 C5.35105469 58.50847656 5.35105469 58.50847656 5.40234375 59.625 C5.46727872 63.19642351 5.3707951 65.23078149 3.21875 68.14453125 C1.05078125 69.6640625 1.05078125 69.6640625 -1.88671875 70.2265625 C-5.02998633 69.64922764 -6.70501352 68.90630819 -8.89935303 66.57177734 C-11.37281641 62.07723799 -10.65368159 56.43115662 -10.61328125 51.4453125 C-10.61806488 50.15467896 -10.62284851 48.86404541 -10.6277771 47.53430176 C-10.63513305 44.8072302 -10.6244866 42.0809797 -10.60107422 39.35400391 C-10.57258432 35.86653544 -10.58899558 32.38099078 -10.61893654 28.89359283 C-10.64139775 25.55651373 -10.62565007 22.21994619 -10.61328125 18.8828125 C-10.6234024 17.63375122 -10.63352356 16.38468994 -10.64395142 15.09777832 C-10.52781587 6.51547294 -10.52781587 6.51547294 -7.71704102 2.37939453 C-4.82990285 0.59011759 -3.35829721 0.02276812 0 0 Z " fill="#040505" transform="translate(224.94921875,324.3359375)"/>
<path d="M0 0 C0.89074219 -0.00193359 1.78148437 -0.00386719 2.69921875 -0.00585938 C3.61832031 0.01798828 4.53742188 0.04183594 5.484375 0.06640625 C6.38800781 0.05544922 7.29164063 0.04449219 8.22265625 0.03320312 C15.92729178 0.11634667 22.06062829 2.01938117 28.046875 6.94140625 C33.01504216 13.04515447 34.94954748 16.99944149 34.61328125 24.91796875 C33.6374471 31.89971002 30.21410073 36.16258804 24.91796875 40.59765625 C23.234375 41.62890625 23.234375 41.62890625 20.234375 41.62890625 C21.06529776 42.75568787 21.89934306 43.88016646 22.734375 45.00390625 C23.27191406 45.73222656 23.80945313 46.46054687 24.36328125 47.2109375 C25.66945071 48.89886839 27.03762111 50.5398185 28.44921875 52.140625 C34.17622847 58.71309837 34.17622847 58.71309837 34.484375 63.56640625 C33.11782617 66.91445089 32.50552782 68.12594414 29.234375 69.62890625 C26.421875 70.25390625 26.421875 70.25390625 23.234375 69.62890625 C17.5973035 65.5230585 13.38240323 59.27069052 9.0546875 53.88671875 C7.42823093 51.7872063 7.42823093 51.7872063 6.234375 50.62890625 C6.21310547 52.05783203 6.21310547 52.05783203 6.19140625 53.515625 C5.75293152 65.04632524 5.75293152 65.04632524 3.046875 68.00390625 C-0.32324055 69.95108412 -1.94645473 70.44149567 -5.765625 69.62890625 C-9.29799803 66.06402172 -10.26888558 63.70141565 -10.29907227 58.72460938 C-10.3149086 57.55990112 -10.33074493 56.39519287 -10.34706116 55.19519043 C-10.34210129 53.94612915 -10.33714142 52.69706787 -10.33203125 51.41015625 C-10.33822983 50.11952271 -10.34442841 48.82888916 -10.35081482 47.49914551 C-10.36120219 44.77219757 -10.35668191 42.04577202 -10.34204102 39.31884766 C-10.3248456 35.83143391 -10.34836247 32.34566667 -10.38353062 28.85843658 C-10.4108217 25.52141325 -10.40076773 22.184786 -10.39453125 18.84765625 C-10.40778946 17.59859497 -10.42104767 16.34953369 -10.43470764 15.06262207 C-10.34229352 6.47453181 -10.34229352 6.47453181 -7.52416992 2.34204102 C-4.69122981 0.58270472 -3.29123626 -0.00299688 0 0 Z " fill="#020202" transform="translate(352.765625,324.37109375)"/>
<path d="M0 0 C4.94436601 3.02588961 6.57814291 6.88171914 8.5 12.125 C8.8196875 12.96305176 9.139375 13.80110352 9.46875 14.66455078 C10.21131436 16.61344098 10.94780652 18.56465081 11.6796875 20.51757812 C12.93179401 23.82010165 14.21456447 27.10853232 15.50939941 30.3944397 C16.71342127 33.45189646 17.90801814 36.51299107 19.10131836 39.574646 C19.69826487 41.10264906 20.29801843 42.62955859 20.90063477 44.15533447 C21.75616705 46.32641034 22.59828087 48.50226265 23.4375 50.6796875 C23.69648071 51.32903259 23.95546143 51.97837769 24.22229004 52.6473999 C25.71448965 56.56560826 26.45060384 59.81313929 26 64 C23.51877621 67.35694984 22.05634831 68.78441871 17.9375 69.625 C15 69 15 69 12.75 66.8125 C10.45609087 63.12586033 9 60.37657589 9 56 C1.41 56.33 -6.18 56.66 -14 57 C-15.98 61.95 -15.98 61.95 -18 67 C-21.49124017 69.32749345 -22.89222251 69.50299316 -27 69 C-29.375 67.5 -29.375 67.5 -31 65 C-31.68334899 57.97745674 -29.77135218 52.6981463 -27.203125 46.21875 C-26.81308289 45.20582886 -26.42304077 44.19290771 -26.0211792 43.14929199 C-25.19679327 41.01556306 -24.36603618 38.884286 -23.52929688 36.75537109 C-22.25596824 33.51518713 -21.00129661 30.26827892 -19.75 27.01953125 C-18.94378826 24.93968523 -18.13653087 22.86024418 -17.328125 20.78125 C-16.95504211 19.81956909 -16.58195923 18.85788818 -16.1975708 17.86706543 C-8.74966396 -1.04995968 -8.74966396 -1.04995968 0 0 Z " fill="#030404" transform="translate(304,325)"/>
<path d="M0 0 C23 0 23 0 31 5 C33 7 33 7 33.24050903 8.91091919 C33.2338472 10.07674026 33.2338472 10.07674026 33.22705078 11.26611328 C33.22689972 12.14687531 33.22674866 13.02763733 33.22659302 13.93508911 C33.21627045 14.88721283 33.20594788 15.83933655 33.1953125 16.8203125 C33.1924826 17.79410858 33.18965271 18.76790466 33.18673706 19.77120972 C33.17551913 22.88926349 33.1504117 26.00703268 33.125 29.125 C33.11497228 31.23567294 33.10584607 33.34635038 33.09765625 35.45703125 C33.07557458 40.63811835 33.04208129 45.81903885 33 51 C32.46117187 50.79503906 31.92234375 50.59007812 31.3671875 50.37890625 C20.57282147 46.84282083 12.31338508 47.55969932 0 47 C0 31.49 0 15.98 0 0 Z " fill="#C2E0FC" transform="translate(215,120)"/>
<path d="M0 0 C0 15.51 0 31.02 0 47 C-11.4375 47.3125 -11.4375 47.3125 -14.98608398 47.38793945 C-15.93813721 47.42105225 -16.89019043 47.45416504 -17.87109375 47.48828125 C-18.82943115 47.51446533 -19.78776855 47.54064941 -20.77514648 47.56762695 C-25.06479509 48.14276267 -28.94503243 49.52383978 -33 51 C-33.14847404 44.82538359 -33.25727723 38.65180895 -33.32958984 32.47583008 C-33.35973742 30.37571104 -33.40066333 28.27571766 -33.45263672 26.17602539 C-33.52554078 23.15479534 -33.55947639 20.13523127 -33.5859375 17.11328125 C-33.61690521 16.17664139 -33.64787292 15.24000153 -33.67977905 14.27497864 C-33.6830488 7.92188803 -33.6830488 7.92188803 -31.76495361 5.33309937 C-21.90631128 -3.18234609 -14.80083535 0 0 0 Z " fill="#C2E0FD" transform="translate(297,120)"/>
<path d="M0 0 C4.88322617 5.33047492 8.60799144 11.63998395 12 18 C15.55034873 13.63156196 18.82856957 9.10392364 22.09765625 4.5234375 C25.19067311 0.42058557 25.19067311 0.42058557 27 -1 C30.40352169 -0.87844565 32.96781407 -0.59933376 35.9375 1.125 C37.65805455 4.16127274 37.81066749 6.68157366 37 10 C35.28623601 12.83649731 33.34112014 15.42825205 31.3605957 18.08496094 C21.76035816 31.04574058 19.36757491 40.97532329 20.14453125 57.265625 C20.27316591 61.60098821 20.29125635 62.58689151 17.703125 66.2578125 C14.40208668 68.38536032 12.84788503 68.81869894 9 68 C6.33364094 65.36127161 5.09890946 63.76420969 4.61279297 60.00830078 C4.65549316 58.91501465 4.69819336 57.82172852 4.7421875 56.6953125 C4.76192627 55.47884033 4.78166504 54.26236816 4.80200195 53.0090332 C4.82609131 51.72730225 4.85018066 50.44557129 4.875 49.125 C4.79913456 35.87954705 2.59770686 28.80190376 -6 19 C-11.94874417 10.6145587 -11.94874417 10.6145587 -12.125 5.0625 C-11 2 -11 2 -9.375 0 C-5.53953713 -1.61493174 -3.95804602 -1.45128354 0 0 Z " fill="#030404" transform="translate(410,326)"/>
<path d="M0 0 C9.18815134 -0.09036614 18.37600758 -0.1637531 27.56450272 -0.20724869 C31.83109292 -0.22812433 36.09736336 -0.25644109 40.36376953 -0.30175781 C44.48106784 -0.3452171 48.59805857 -0.36913728 52.71556854 -0.37950897 C54.2864847 -0.38690027 55.85738402 -0.40133388 57.42816925 -0.42292023 C59.62858969 -0.45195682 61.82773913 -0.45595612 64.02832031 -0.45410156 C65.28074524 -0.46298401 66.53317017 -0.47186646 67.82354736 -0.48101807 C71 0 71 0 75 4 C75 9.28 75 14.56 75 20 C50.25 20 25.5 20 0 20 C0 13.4 0 6.8 0 0 Z " fill="#E69856" transform="translate(393,86)"/>
<path d="M0 0 C1.25242493 0.00888245 2.50484985 0.01776489 3.79522705 0.0269165 C4.48831467 0.0263324 5.18140228 0.02574829 5.89549255 0.02514648 C8.17931751 0.02792638 10.46182633 0.059011 12.74542236 0.09039307 C14.33153572 0.09785586 15.9176583 0.10354862 17.50378418 0.10754395 C21.6731524 0.12279742 25.84196092 0.1620762 30.0111084 0.20635986 C34.26752145 0.24731908 38.52402518 0.26555632 42.78057861 0.28570557 C51.12852001 0.32857139 59.47589952 0.39891834 67.82354736 0.48101807 C67.82354736 7.08101807 67.82354736 13.68101807 67.82354736 20.48101807 C43.07354736 20.48101807 18.32354736 20.48101807 -7.17645264 20.48101807 C-7.17645264 1.08674794 -7.17645264 1.08674794 0 0 Z " fill="#E69856" transform="translate(51.17645263671875,85.51898193359375)"/>
<path d="M0 0 C22.77 0 45.54 0 69 0 C69 6.6 69 13.2 69 20 C61.54163728 20.22634867 54.08516363 20.40960541 46.62409019 20.51812172 C43.15906129 20.5702192 39.69651164 20.64079692 36.23291016 20.75439453 C32.2467266 20.88430621 28.26152983 20.93243844 24.2734375 20.9765625 C23.03572601 21.02817535 21.79801453 21.07978821 20.52279663 21.13296509 C17.07269301 21.1352101 14.29216587 21.03901047 11 20 C8.11660566 17.00261717 6.64235122 13.7794498 5 10 C4.06949533 8.48257988 3.11554081 6.97892924 2.125 5.5 C0 2.23899371 0 2.23899371 0 0 Z " fill="#E99A57" transform="translate(50,121)"/>
<path d="M0 0 C22.77 0 45.54 0 69 0 C62 14 62 14 58 20 C55.31707764 20.7215271 55.31707764 20.7215271 52.22167969 20.68115234 C51.0607782 20.68069916 49.89987671 20.68024597 48.70379639 20.67977905 C47.45576233 20.64881134 46.20772827 20.61784363 44.921875 20.5859375 C42.99930878 20.57320297 42.99930878 20.57320297 41.03790283 20.56021118 C37.63746405 20.53734933 34.23857382 20.47845492 30.83874512 20.4119873 C27.36666819 20.35050409 23.8943399 20.32318366 20.421875 20.29296875 C13.61388469 20.22870406 6.8071762 20.12320395 0 20 C0 13.4 0 6.8 0 0 Z " fill="#E99A57" transform="translate(393,121)"/>
<path d="M0 0 C3.87192592 0.87118333 5.11876618 2.38792966 7.5 5.5625 C8.19665325 9.30234864 8.08185332 12.97678608 7.98828125 16.76953125 C7.97766914 18.39032845 7.97766914 18.39032845 7.96684265 20.04386902 C7.93889847 23.48828945 7.87615633 26.93107255 7.8125 30.375 C7.78741733 32.71286712 7.76460411 35.05075976 7.74414062 37.38867188 C7.68907176 43.11383801 7.60544419 48.83805203 7.5 54.5625 C8.94632813 54.49289062 8.94632813 54.49289062 10.421875 54.421875 C11.68515625 54.38578125 12.9484375 54.3496875 14.25 54.3125 C16.12945312 54.24289062 16.12945312 54.24289062 18.046875 54.171875 C21.5 54.5625 21.5 54.5625 23.91992188 56.45092773 C26.5762189 60.00072887 26.05156258 62.21894469 25.5 66.5625 C23.31377649 68.80771583 21.92253585 69.49892756 18.81445312 69.96655273 C15.54213588 69.99842253 12.27247771 70.02033743 9 70 C7.85917969 70.01998047 6.71835938 70.03996094 5.54296875 70.06054688 C4.44597656 70.05990234 3.34898438 70.05925781 2.21875 70.05859375 C1.21779297 70.06044678 0.21683594 70.0622998 -0.81445312 70.06420898 C-4.29802537 69.41341435 -5.30769689 68.31600058 -7.5 65.5625 C-8.0146637 62.79260254 -8.0146637 62.79260254 -8.03344727 59.57226562 C-8.0492836 58.36421265 -8.06511993 57.15615967 -8.08143616 55.91149902 C-8.07647629 54.61039185 -8.07151642 53.30928467 -8.06640625 51.96875 C-8.0716429 50.61641003 -8.07791954 49.26407373 -8.08518982 47.91174316 C-8.09558847 45.08047268 -8.09104062 42.24970496 -8.07641602 39.41845703 C-8.05922052 35.79305585 -8.08273213 32.16923844 -8.11790562 28.54401398 C-8.13988257 25.75235527 -8.13843789 22.9610755 -8.1301403 20.1693573 C-8.12892328 18.18402979 -8.14885331 16.19872579 -8.16908264 14.21350098 C-8.15654953 13.005448 -8.14401642 11.79739502 -8.13110352 10.55273438 C-8.13014175 9.49002319 -8.12917999 8.42731201 -8.12818909 7.33239746 C-7.13639183 2.959229 -4.287025 0.96458063 0 0 Z " fill="#030404" transform="translate(78.5,324.4375)"/>
<path d="M0 0 C0.33 0 0.66 0 1 0 C1 65.67 1 131.34 1 199 C-15.17 199 -31.34 199 -48 199 C-48 192.07 -48 185.14 -48 178 C-32.16 178 -16.32 178 0 178 C0 119.26 0 60.52 0 0 Z " fill="#E2E6EA" transform="translate(377,86)"/>
<path d="M0 0 C18.15 0 36.3 0 55 0 C55 6.93 55 13.86 55 21 C36.85 21 18.7 21 0 21 C0 14.07 0 7.14 0 0 Z " fill="#9FACBA" transform="translate(393,264)"/>
<path d="M0 0 C18.15 0 36.3 0 55 0 C55 6.93 55 13.86 55 21 C36.85 21 18.7 21 0 21 C0 14.07 0 7.14 0 0 Z " fill="#9FACBA" transform="translate(64,264)"/>
<path d="M0 0 C0.33 0 0.66 0 1 0 C1 12.54 1 25.08 1 38 C17.17 38 33.34 38 50 38 C50 25.46 50 12.92 50 0 C50.33 0 50.66 0 51 0 C51 19.47 51 38.94 51 59 C34.17 59 17.34 59 0 59 C0 39.53 0 20.06 0 0 Z " fill="#C16A35" transform="translate(263,226)"/>
<path d="M0 0 C0.33 0 0.66 0 1 0 C1 12.54 1 25.08 1 38 C17.17 38 33.34 38 50 38 C50 25.46 50 12.92 50 0 C50.33 0 50.66 0 51 0 C51 19.47 51 38.94 51 59 C34.17 59 17.34 59 0 59 C0 39.53 0 20.06 0 0 Z " fill="#C16A35" transform="translate(198,226)"/>
<path d="M0 0 C0.33 0 0.66 0 1 0 C1 6.93 1 13.86 1 21 C16.84 21 32.68 21 49 21 C49 27.93 49 34.86 49 42 C32.83 42 16.66 42 0 42 C0 28.14 0 14.28 0 0 Z " fill="#E6EBF0" transform="translate(134,243)"/>
<path d="M0 0 C4.42733485 1.3937906 4.42733485 1.3937906 6.375 4.0625 C6.76268005 6.71214294 6.76268005 6.71214294 6.77905273 9.93920898 C6.79173691 11.14733749 6.80442108 12.355466 6.81748962 13.60020447 C6.81455399 14.90647293 6.81161835 16.21274139 6.80859375 17.55859375 C6.81315496 18.91236127 6.81846035 20.26612647 6.82447815 21.61988831 C6.8334131 24.45705573 6.83098238 27.29394174 6.82104492 30.13110352 C6.80955884 33.76416038 6.82975748 37.39624476 6.85896206 41.02917385 C6.87732391 43.82507991 6.87703169 46.62075295 6.87132454 49.41670418 C6.87109686 51.40645103 6.88799826 53.39617594 6.90513611 55.385849 C6.89575516 56.59712967 6.88637421 57.80841034 6.87670898 59.05639648 C6.87654282 60.12212387 6.87637665 61.18785126 6.87620544 62.28587341 C6.2499218 65.75542037 5.13616663 66.93312723 2.375 69.0625 C-1.43404964 69.79189248 -3.02076976 69.45580078 -6.27490234 67.33764648 C-10.34963498 63.00325795 -9.335021 56.65586812 -9.2890625 51.09765625 C-9.29384613 49.83159042 -9.29862976 48.5655246 -9.30355835 47.26109314 C-9.30695958 44.58472998 -9.30027186 41.91065476 -9.27685547 39.23461914 C-9.24839429 35.81673689 -9.26475815 32.40082016 -9.29471779 28.98301029 C-9.31720893 25.7086568 -9.30142488 22.43453549 -9.2890625 19.16015625 C-9.29918365 17.93813004 -9.30930481 16.71610382 -9.31973267 15.45704651 C-9.18949045 5.99834104 -9.18949045 5.99834104 -6.31005859 2.24780273 C-3.625 0.0625 -3.625 0.0625 0 0 Z " fill="#070707" transform="translate(127.625,324.9375)"/>
<path d="M0 0 C0.66 0 1.32 0 2 0 C3.47769218 1.63432755 4.88269319 3.33476368 6.25 5.0625 C7.05566406 6.0628125 7.86132812 7.063125 8.69140625 8.09375 C10.04230875 9.79437852 11.38667923 11.50030479 12.71484375 13.21875 C15.78874348 17.06723985 17.9846133 18.92527428 23 20 C23 20.33 23 20.66 23 21 C90.65 21.33 158.3 21.66 228 22 C228 22.33 228 22.66 228 23 C81.81 23 -64.38 23 -215 23 C-215 22.67 -215 22.34 -215 22 C-194.21 21.67 -173.42 21.34 -152 21 C-152 20.67 -152 20.34 -152 20 C-145.07 20 -138.14 20 -131 20 C-131 20.33 -131 20.66 -131 21 C-114.75385785 21.07003922 -98.50776457 21.12296314 -82.26150799 21.15543652 C-74.71831405 21.17091433 -67.17521385 21.1920212 -59.63208008 21.22631836 C-53.05851439 21.25619287 -46.48501657 21.27556835 -39.91138488 21.28226548 C-36.42973131 21.28618109 -32.94827194 21.29540197 -29.46668053 21.31719017 C-25.58281146 21.34129937 -21.69913347 21.34197125 -17.81518555 21.34057617 C-16.07810081 21.35675491 -16.07810081 21.35675491 -14.30592346 21.3732605 C-13.25003021 21.36913651 -12.19413696 21.36501251 -11.10624695 21.36076355 C-10.18721934 21.36352893 -9.26819174 21.36629431 -8.32131481 21.36914349 C-5.54896792 20.92827532 -4.81624492 20.05490335 -3 18 C-2.34 18 -1.68 18 -1 18 C-0.67 12.06 -0.34 6.12 0 0 Z " fill="#DEE5E9" transform="translate(230,374)"/>
<path d="M0 0 C13.34520217 -0.49426675 13.34520217 -0.49426675 16.421875 1.828125 C18 4 18 4 18.5 7 C17.87352624 10.75884259 17.02227202 11.71867209 14 14 C9.2805118 14.53387876 4.76525513 14.17649093 0 14 C0 9.38 0 4.76 0 0 Z " fill="#DEE3E8" transform="translate(168,365)"/>
<path d="M0 0 C7.97122862 -0.35692068 7.97122862 -0.35692068 12.0625 1.0625 C14 3 14 3 14.5625 6.5 C14 10 14 10 12.29296875 11.70703125 C9.54508657 13.25651847 7.87931607 13.31102563 4.75 13.1875 C3.1825 13.125625 1.615 13.06375 0 13 C0 8.71 0 4.42 0 0 Z " fill="#DBE0E4" transform="translate(230,340)"/>
<path d="M0 0 C8.04 -0.48 8.04 -0.48 12.125 1.5625 C14 4 14 4 14 7.625 C13 11 13 11 10 13 C6.64683663 13.26402861 3.36941342 13.08751723 0 13 C0 8.71 0 4.42 0 0 Z " fill="#E2E6EB" transform="translate(358,340)"/>
<path d="M0 0 C9.625 -0.25 9.625 -0.25 13 2 C13.3125 5 13.3125 5 13 8 C11 10 11 10 8.3984375 10.1953125 C7.40070313 10.17210937 6.40296875 10.14890625 5.375 10.125 C3.87066406 10.09792969 3.87066406 10.09792969 2.3359375 10.0703125 C1.56507813 10.04710937 0.79421875 10.02390625 0 10 C0 6.7 0 3.4 0 0 Z " fill="#DADEE3" transform="translate(168,340)"/>
<path d="M0 0 C2.52475462 2.52475462 3.04307871 4.73497997 4.125 8.125 C4.47820312 9.22070312 4.83140625 10.31640625 5.1953125 11.4453125 C5.46085937 12.28835938 5.72640625 13.13140625 6 14 C2.37 14 -1.26 14 -5 14 C-2.05357143 3.82142857 -2.05357143 3.82142857 0 0 Z " fill="#D4D8DD" transform="translate(301,352)"/>
</svg>
